<svg width="190" height="126" viewBox="0 0 190 126" fill="none" xmlns="http://www.w3.org/2000/svg">
<g filter="url(#filter0_d_33_2559)">
<rect x="23" y="13" width="144" height="80" rx="20" fill="white"/>
</g>
<path d="M76.1874 53.056V46.176H83.4194V53.056H76.1874ZM64.9554 53.056V46.176H72.1554V53.056H64.9554ZM76.1874 42.432V36.896H72.1554V42.432H61.1154V58.56H64.9554V56.8H72.1554V66.784H76.1874V56.8H83.4194V58.4H87.4194V42.432H76.1874ZM111.771 45.664C110.395 49.28 108.571 52.288 106.267 54.784C103.803 52.192 101.915 49.12 100.539 45.664H111.771ZM120.859 45.664V41.952H108.155V36.896H104.283V41.952H91.7394V45.664H96.3154C98.0434 50.336 100.251 54.336 103.131 57.632C99.8994 60.096 95.8994 61.92 91.1634 63.168C91.9314 64.096 93.1154 65.888 93.5634 66.88C98.4274 65.344 102.555 63.264 106.043 60.48C109.403 63.328 113.563 65.472 118.715 66.784C119.291 65.696 120.507 63.904 121.435 62.976C116.571 61.888 112.539 60 109.243 57.472C112.187 54.272 114.523 50.4 116.251 45.664H120.859Z" fill="#FCA311"/>
<defs>
<filter id="filter0_d_33_2559" x="0" y="0" width="190" height="126" filterUnits="userSpaceOnUse" color-interpolation-filters="sRGB">
<feFlood flood-opacity="0" result="BackgroundImageFix"/>
<feColorMatrix in="SourceAlpha" type="matrix" values="0 0 0 0 0 0 0 0 0 0 0 0 0 0 0 0 0 0 127 0" result="hardAlpha"/>
<feMorphology radius="1" operator="erode" in="SourceAlpha" result="effect1_dropShadow_33_2559"/>
<feOffset dy="10"/>
<feGaussianBlur stdDeviation="12"/>
<feComposite in2="hardAlpha" operator="out"/>
<feColorMatrix type="matrix" values="0 0 0 0 0.508333 0 0 0 0 0.452756 0 0 0 0 0.421493 0 0 0 0.19 0"/>
<feBlend mode="normal" in2="BackgroundImageFix" result="effect1_dropShadow_33_2559"/>
<feBlend mode="normal" in="SourceGraphic" in2="effect1_dropShadow_33_2559" result="shape"/>
</filter>
</defs>
</svg>
