<svg width="250" height="126" viewBox="0 0 250 126" fill="none" xmlns="http://www.w3.org/2000/svg">
<g filter="url(#filter0_d_33_2557)">
<rect x="23" y="13" width="204" height="80" rx="20" fill="white"/>
</g>
<path d="M81.5659 60.128V64H65.7899V41.28H81.2779V45.152H70.2059V50.624H79.7739V54.208H70.2059V60.128H81.5659ZM99.9891 64H95.7011V54.592C95.7011 53.248 95.4665 52.2667 94.9971 51.648C94.5278 51.0293 93.8771 50.72 93.0451 50.72C92.6185 50.72 92.1811 50.8053 91.7331 50.976C91.2851 51.1467 90.8585 51.392 90.4531 51.712C90.0691 52.0107 89.7171 52.3733 89.3971 52.8C89.0771 53.2267 88.8425 53.696 88.6931 54.208V64H84.4051V47.232H88.2771V50.336C88.8958 49.2693 89.7918 48.4373 90.9651 47.84C92.1385 47.2427 93.4611 46.944 94.9331 46.944C95.9785 46.944 96.8318 47.136 97.4931 47.52C98.1545 47.904 98.6665 48.4053 99.0291 49.024C99.3918 49.6427 99.6371 50.3467 99.7651 51.136C99.9145 51.9253 99.9891 52.7253 99.9891 53.536V64ZM110.278 64.096C109.147 64.096 108.123 63.872 107.206 63.424C106.288 62.976 105.488 62.368 104.806 61.6C104.144 60.8107 103.632 59.904 103.27 58.88C102.907 57.856 102.726 56.768 102.726 55.616C102.726 54.4 102.918 53.2693 103.302 52.224C103.686 51.1787 104.219 50.2613 104.902 49.472C105.584 48.6827 106.406 48.064 107.366 47.616C108.326 47.168 109.382 46.944 110.534 46.944C111.835 46.944 112.976 47.2427 113.958 47.84C114.939 48.416 115.75 49.1947 116.39 50.176V47.232H120.134V63.2C120.134 64.4373 119.899 65.5467 119.43 66.528C118.96 67.5093 118.31 68.3413 117.478 69.024C116.667 69.7067 115.686 70.2293 114.534 70.592C113.403 70.9547 112.166 71.136 110.822 71.136C108.987 71.136 107.44 70.8267 106.182 70.208C104.944 69.6107 103.878 68.7573 102.982 67.648L105.318 65.376C105.958 66.1653 106.758 66.784 107.718 67.232C108.699 67.68 109.734 67.904 110.822 67.904C111.483 67.904 112.112 67.808 112.71 67.616C113.328 67.4453 113.872 67.168 114.342 66.784C114.811 66.4 115.174 65.9093 115.43 65.312C115.707 64.7147 115.846 64.0107 115.846 63.2V61.088C115.291 62.048 114.512 62.7947 113.51 63.328C112.507 63.84 111.43 64.096 110.278 64.096ZM111.718 60.672C112.187 60.672 112.635 60.5973 113.062 60.448C113.488 60.2987 113.883 60.096 114.246 59.84C114.608 59.584 114.928 59.2853 115.206 58.944C115.483 58.6027 115.696 58.24 115.846 57.856V53.856C115.462 52.8747 114.854 52.0853 114.022 51.488C113.211 50.8907 112.358 50.592 111.462 50.592C110.8 50.592 110.203 50.7413 109.67 51.04C109.136 51.3173 108.678 51.7013 108.294 52.192C107.91 52.6613 107.611 53.2053 107.398 53.824C107.206 54.4427 107.11 55.0827 107.11 55.744C107.11 56.4267 107.227 57.0667 107.462 57.664C107.696 58.2613 108.016 58.784 108.422 59.232C108.848 59.68 109.339 60.032 109.894 60.288C110.448 60.544 111.056 60.672 111.718 60.672ZM123.967 40.64H128.255V58.624C128.255 59.2427 128.404 59.7227 128.703 60.064C129.002 60.4053 129.428 60.576 129.983 60.576C130.239 60.576 130.516 60.5333 130.815 60.448C131.135 60.3627 131.434 60.256 131.711 60.128L132.287 63.392C131.711 63.6693 131.039 63.8827 130.271 64.032C129.503 64.1813 128.81 64.256 128.191 64.256C126.847 64.256 125.802 63.904 125.055 63.2C124.33 62.4747 123.967 61.4507 123.967 60.128V40.64ZM134.155 64V47.232H138.443V64H134.155ZM134.155 44.896V40.64H138.443V44.896H134.155ZM148.647 64.32C147.239 64.32 145.863 64.096 144.519 63.648C143.175 63.2 142.023 62.56 141.063 61.728L142.663 59.04C143.687 59.7653 144.679 60.32 145.639 60.704C146.621 61.0667 147.591 61.248 148.551 61.248C149.405 61.248 150.077 61.088 150.567 60.768C151.058 60.448 151.303 59.9893 151.303 59.392C151.303 58.7947 151.015 58.3573 150.439 58.08C149.863 57.8027 148.925 57.4827 147.623 57.12C146.535 56.8213 145.607 56.5333 144.839 56.256C144.071 55.9787 143.453 55.6693 142.983 55.328C142.514 54.9653 142.173 54.56 141.959 54.112C141.746 53.6427 141.639 53.088 141.639 52.448C141.639 51.5947 141.799 50.8267 142.119 50.144C142.461 49.4613 142.93 48.8853 143.527 48.416C144.125 47.9253 144.818 47.552 145.607 47.296C146.418 47.04 147.293 46.912 148.231 46.912C149.49 46.912 150.663 47.0933 151.751 47.456C152.861 47.8187 153.874 48.4053 154.791 49.216L153.063 51.808C152.21 51.168 151.378 50.6987 150.567 50.4C149.778 50.1013 148.989 49.952 148.199 49.952C147.474 49.952 146.866 50.1013 146.375 50.4C145.885 50.6987 145.639 51.1787 145.639 51.84C145.639 52.1387 145.693 52.384 145.799 52.576C145.927 52.768 146.119 52.9387 146.375 53.088C146.631 53.2373 146.962 53.3867 147.367 53.536C147.794 53.664 148.317 53.8027 148.935 53.952C150.087 54.2507 151.069 54.5493 151.879 54.848C152.711 55.1467 153.383 55.488 153.895 55.872C154.429 56.256 154.813 56.704 155.047 57.216C155.303 57.7067 155.431 58.304 155.431 59.008C155.431 60.6507 154.823 61.952 153.607 62.912C152.391 63.8507 150.738 64.32 148.647 64.32ZM173.802 64H169.514V54.592C169.514 53.2693 169.268 52.2987 168.778 51.68C168.287 51.04 167.594 50.72 166.698 50.72C166.314 50.72 165.908 50.8053 165.482 50.976C165.055 51.1467 164.65 51.392 164.266 51.712C163.882 52.0107 163.53 52.3733 163.21 52.8C162.89 53.2267 162.655 53.696 162.506 54.208V64H158.218V40.64H162.506V50.336C163.124 49.248 163.956 48.416 165.002 47.84C166.068 47.2427 167.242 46.944 168.522 46.944C169.61 46.944 170.495 47.136 171.178 47.52C171.86 47.8827 172.394 48.3733 172.778 48.992C173.162 49.6107 173.428 50.3147 173.578 51.104C173.727 51.8933 173.802 52.704 173.802 53.536V64Z" fill="#FCA311"/>
<defs>
<filter id="filter0_d_33_2557" x="0" y="0" width="250" height="126" filterUnits="userSpaceOnUse" color-interpolation-filters="sRGB">
<feFlood flood-opacity="0" result="BackgroundImageFix"/>
<feColorMatrix in="SourceAlpha" type="matrix" values="0 0 0 0 0 0 0 0 0 0 0 0 0 0 0 0 0 0 127 0" result="hardAlpha"/>
<feMorphology radius="1" operator="erode" in="SourceAlpha" result="effect1_dropShadow_33_2557"/>
<feOffset dy="10"/>
<feGaussianBlur stdDeviation="12"/>
<feComposite in2="hardAlpha" operator="out"/>
<feColorMatrix type="matrix" values="0 0 0 0 0.508333 0 0 0 0 0.452756 0 0 0 0 0.421493 0 0 0 0.19 0"/>
<feBlend mode="normal" in2="BackgroundImageFix" result="effect1_dropShadow_33_2557"/>
<feBlend mode="normal" in="SourceGraphic" in2="effect1_dropShadow_33_2557" result="shape"/>
</filter>
</defs>
</svg>
