<svg width="199" height="106" viewBox="0 0 199 106" fill="none" xmlns="http://www.w3.org/2000/svg">
<g filter="url(#filter0_d_33_2558)">
<rect x="23" y="13" width="153" height="60" rx="17" fill="white"/>
</g>
<path d="M61.3356 48.975V52H49.0106V34.25H61.1106V37.275H52.4606V41.55H59.9356V44.35H52.4606V48.975H61.3356ZM68.5038 52.25C67.4038 52.25 66.3288 52.075 65.2788 51.725C64.2288 51.375 63.3288 50.875 62.5788 50.225L63.8288 48.125C64.6288 48.6917 65.4038 49.125 66.1538 49.425C66.9205 49.7083 67.6788 49.85 68.4288 49.85C69.0955 49.85 69.6205 49.725 70.0038 49.475C70.3871 49.225 70.5788 48.8667 70.5788 48.4C70.5788 47.9333 70.3538 47.5917 69.9038 47.375C69.4538 47.1583 68.7205 46.9083 67.7038 46.625C66.8538 46.3917 66.1288 46.1667 65.5288 45.95C64.9288 45.7333 64.4455 45.4917 64.0788 45.225C63.7121 44.9417 63.4455 44.625 63.2788 44.275C63.1121 43.9083 63.0288 43.475 63.0288 42.975C63.0288 42.3083 63.1538 41.7083 63.4038 41.175C63.6705 40.6417 64.0371 40.1917 64.5038 39.825C64.9705 39.4417 65.5121 39.15 66.1288 38.95C66.7621 38.75 67.4455 38.65 68.1788 38.65C69.1621 38.65 70.0788 38.7917 70.9288 39.075C71.7955 39.3583 72.5871 39.8167 73.3038 40.45L71.9538 42.475C71.2871 41.975 70.6371 41.6083 70.0038 41.375C69.3871 41.1417 68.7705 41.025 68.1538 41.025C67.5871 41.025 67.1121 41.1417 66.7288 41.375C66.3455 41.6083 66.1538 41.9833 66.1538 42.5C66.1538 42.7333 66.1955 42.925 66.2788 43.075C66.3788 43.225 66.5288 43.3583 66.7288 43.475C66.9288 43.5917 67.1871 43.7083 67.5038 43.825C67.8371 43.925 68.2455 44.0333 68.7288 44.15C69.6288 44.3833 70.3955 44.6167 71.0288 44.85C71.6788 45.0833 72.2038 45.35 72.6038 45.65C73.0205 45.95 73.3205 46.3 73.5038 46.7C73.7038 47.0833 73.8038 47.55 73.8038 48.1C73.8038 49.3833 73.3288 50.4 72.3788 51.15C71.4288 51.8833 70.1371 52.25 68.5038 52.25ZM83.8306 52.25C82.7972 52.25 81.8972 52.025 81.1306 51.575C80.3639 51.1083 79.7639 50.4833 79.3306 49.7V57.325H75.9806V38.9H78.9056V41.15C79.3889 40.3833 80.0139 39.7833 80.7806 39.35C81.5472 38.9 82.4306 38.675 83.4306 38.675C84.3139 38.675 85.1306 38.8583 85.8806 39.225C86.6306 39.575 87.2722 40.0583 87.8056 40.675C88.3556 41.275 88.7806 41.9917 89.0806 42.825C89.3972 43.6417 89.5556 44.5083 89.5556 45.425C89.5556 46.375 89.4139 47.2667 89.1306 48.1C88.8472 48.9333 88.4472 49.6583 87.9306 50.275C87.4306 50.8917 86.8306 51.375 86.1306 51.725C85.4306 52.075 84.6639 52.25 83.8306 52.25ZM82.7056 49.4C83.2056 49.4 83.6639 49.2917 84.0806 49.075C84.5139 48.8583 84.8806 48.5667 85.1806 48.2C85.4806 47.8333 85.7139 47.4083 85.8806 46.925C86.0472 46.4417 86.1306 45.9417 86.1306 45.425C86.1306 44.875 86.0389 44.3667 85.8556 43.9C85.6722 43.4167 85.4139 43 85.0806 42.65C84.7639 42.3 84.3806 42.025 83.9306 41.825C83.4972 41.625 83.0222 41.525 82.5056 41.525C82.1889 41.525 81.8639 41.5833 81.5306 41.7C81.1972 41.8 80.8889 41.95 80.6056 42.15C80.3222 42.35 80.0639 42.5833 79.8306 42.85C79.6139 43.1167 79.4472 43.4083 79.3306 43.725V46.8C79.6306 47.55 80.0889 48.175 80.7056 48.675C81.3222 49.1583 81.9889 49.4 82.7056 49.4ZM95.4003 52.25C94.767 52.25 94.1753 52.15 93.6253 51.95C93.0753 51.7333 92.6003 51.4417 92.2003 51.075C91.8003 50.6917 91.4836 50.25 91.2503 49.75C91.0336 49.25 90.9253 48.7 90.9253 48.1C90.9253 47.4833 91.0586 46.9167 91.3253 46.4C91.6086 45.8667 91.992 45.4167 92.4753 45.05C92.9753 44.6833 93.567 44.4 94.2503 44.2C94.9336 43.9833 95.6836 43.875 96.5003 43.875C97.0836 43.875 97.6503 43.925 98.2003 44.025C98.767 44.125 99.267 44.2667 99.7003 44.45V43.7C99.7003 42.8333 99.4503 42.1667 98.9503 41.7C98.467 41.2333 97.742 41 96.7753 41C96.0753 41 95.392 41.125 94.7253 41.375C94.0586 41.625 93.3753 41.9917 92.6753 42.475L91.6503 40.35C93.3336 39.2333 95.1503 38.675 97.1003 38.675C98.9836 38.675 100.442 39.1417 101.475 40.075C102.525 40.9917 103.05 42.325 103.05 44.075V48.15C103.05 48.5 103.109 48.75 103.225 48.9C103.359 49.05 103.567 49.1333 103.85 49.15V52C103.284 52.1167 102.792 52.175 102.375 52.175C101.742 52.175 101.25 52.0333 100.9 51.75C100.567 51.4667 100.359 51.0917 100.275 50.625L100.2 49.9C99.617 50.6667 98.9086 51.25 98.0753 51.65C97.242 52.05 96.3503 52.25 95.4003 52.25ZM96.3503 49.8C96.917 49.8 97.4503 49.7 97.9503 49.5C98.467 49.3 98.867 49.0333 99.1503 48.7C99.517 48.4167 99.7003 48.1 99.7003 47.75V46.25C99.3003 46.1 98.867 45.9833 98.4003 45.9C97.9336 45.8 97.4836 45.75 97.0503 45.75C96.1836 45.75 95.4753 45.95 94.9253 46.35C94.3753 46.7333 94.1003 47.225 94.1003 47.825C94.1003 48.3917 94.317 48.8667 94.7503 49.25C95.1836 49.6167 95.717 49.8 96.3503 49.8ZM118.356 52H115.006V44.65C115.006 43.6 114.822 42.8333 114.456 42.35C114.089 41.8667 113.581 41.625 112.931 41.625C112.597 41.625 112.256 41.6917 111.906 41.825C111.556 41.9583 111.222 42.15 110.906 42.4C110.606 42.6333 110.331 42.9167 110.081 43.25C109.831 43.5833 109.647 43.95 109.531 44.35V52H106.181V38.9H109.206V41.325C109.689 40.4917 110.389 39.8417 111.306 39.375C112.222 38.9083 113.256 38.675 114.406 38.675C115.222 38.675 115.889 38.825 116.406 39.125C116.922 39.425 117.322 39.8167 117.606 40.3C117.889 40.7833 118.081 41.3333 118.181 41.95C118.297 42.5667 118.356 43.1917 118.356 43.825V52ZM114.131 36.95C113.747 36.95 113.414 36.8917 113.131 36.775C112.847 36.6583 112.581 36.5333 112.331 36.4C112.097 36.25 111.856 36.1167 111.606 36C111.372 35.8833 111.122 35.825 110.856 35.825C110.572 35.825 110.347 35.8833 110.181 36C110.031 36.1167 109.914 36.25 109.831 36.4C109.747 36.55 109.697 36.6917 109.681 36.825C109.664 36.9417 109.656 37.0083 109.656 37.025H107.806C107.806 36.875 107.856 36.625 107.956 36.275C108.056 35.9083 108.214 35.55 108.431 35.2C108.664 34.8333 108.964 34.5167 109.331 34.25C109.714 33.9667 110.181 33.825 110.731 33.825C111.114 33.825 111.439 33.8917 111.706 34.025C111.989 34.1417 112.247 34.275 112.481 34.425C112.731 34.5583 112.972 34.6917 113.206 34.825C113.456 34.9417 113.731 35 114.031 35C114.331 35 114.564 34.9417 114.731 34.825C114.914 34.7083 115.047 34.575 115.131 34.425C115.231 34.275 115.289 34.1333 115.306 34C115.339 33.8667 115.356 33.7833 115.356 33.75H117.206C117.206 33.8667 117.156 34.1 117.056 34.45C116.956 34.8 116.781 35.1583 116.531 35.525C116.297 35.8917 115.981 36.225 115.581 36.525C115.197 36.8083 114.714 36.95 114.131 36.95ZM127.319 52.25C126.252 52.25 125.294 52.0667 124.444 51.7C123.594 51.3333 122.869 50.8417 122.269 50.225C121.685 49.5917 121.235 48.8667 120.919 48.05C120.602 47.2333 120.444 46.375 120.444 45.475C120.444 44.5583 120.602 43.6917 120.919 42.875C121.235 42.0583 121.685 41.3417 122.269 40.725C122.869 40.0917 123.594 39.5917 124.444 39.225C125.294 38.8583 126.252 38.675 127.319 38.675C128.385 38.675 129.335 38.8583 130.169 39.225C131.019 39.5917 131.735 40.0917 132.319 40.725C132.919 41.3417 133.377 42.0583 133.694 42.875C134.01 43.6917 134.169 44.5583 134.169 45.475C134.169 46.375 134.01 47.2333 133.694 48.05C133.377 48.8667 132.927 49.5917 132.344 50.225C131.76 50.8417 131.044 51.3333 130.194 51.7C129.344 52.0667 128.385 52.25 127.319 52.25ZM123.894 45.475C123.894 46.0583 123.977 46.5917 124.144 47.075C124.327 47.5417 124.569 47.95 124.869 48.3C125.185 48.65 125.552 48.925 125.969 49.125C126.385 49.3083 126.835 49.4 127.319 49.4C127.802 49.4 128.252 49.3083 128.669 49.125C129.085 48.925 129.444 48.65 129.744 48.3C130.06 47.95 130.302 47.5333 130.469 47.05C130.652 46.5667 130.744 46.0333 130.744 45.45C130.744 44.8833 130.652 44.3583 130.469 43.875C130.302 43.3917 130.06 42.975 129.744 42.625C129.444 42.275 129.085 42.0083 128.669 41.825C128.252 41.625 127.802 41.525 127.319 41.525C126.835 41.525 126.385 41.625 125.969 41.825C125.552 42.025 125.185 42.3 124.869 42.65C124.569 43 124.327 43.4167 124.144 43.9C123.977 44.3833 123.894 44.9083 123.894 45.475ZM136.405 33.75H139.755V47.8C139.755 48.2833 139.871 48.6583 140.105 48.925C140.338 49.1917 140.671 49.325 141.105 49.325C141.305 49.325 141.521 49.2917 141.755 49.225C142.005 49.1583 142.238 49.075 142.455 48.975L142.905 51.525C142.455 51.7417 141.93 51.9083 141.33 52.025C140.73 52.1417 140.188 52.2 139.705 52.2C138.655 52.2 137.838 51.925 137.255 51.375C136.688 50.8083 136.405 50.0083 136.405 48.975V33.75Z" fill="#FCA311"/>
<defs>
<filter id="filter0_d_33_2558" x="0" y="0" width="199" height="106" filterUnits="userSpaceOnUse" color-interpolation-filters="sRGB">
<feFlood flood-opacity="0" result="BackgroundImageFix"/>
<feColorMatrix in="SourceAlpha" type="matrix" values="0 0 0 0 0 0 0 0 0 0 0 0 0 0 0 0 0 0 127 0" result="hardAlpha"/>
<feMorphology radius="1" operator="erode" in="SourceAlpha" result="effect1_dropShadow_33_2558"/>
<feOffset dy="10"/>
<feGaussianBlur stdDeviation="12"/>
<feComposite in2="hardAlpha" operator="out"/>
<feColorMatrix type="matrix" values="0 0 0 0 0.508333 0 0 0 0 0.452756 0 0 0 0 0.421493 0 0 0 0.19 0"/>
<feBlend mode="normal" in2="BackgroundImageFix" result="effect1_dropShadow_33_2558"/>
<feBlend mode="normal" in="SourceGraphic" in2="effect1_dropShadow_33_2558" result="shape"/>
</filter>
</defs>
</svg>
