<svg width="250" height="126" viewBox="0 0 250 126" fill="none" xmlns="http://www.w3.org/2000/svg">
<g filter="url(#filter0_d_33_2561)">
<rect x="23" y="13" width="204" height="80" rx="20" fill="white"/>
</g>
<path d="M67.3331 58V39.504L71.3651 37.36V58H67.3331ZM84.9681 56.016C84.9681 58.4907 84.2855 60.496 82.9201 62.032C81.6615 63.4613 79.9975 64.176 77.9281 64.176C76.5841 64.176 75.2721 63.8347 73.9921 63.152V59.632C75.1015 60.2507 76.1895 60.56 77.2561 60.56C78.4295 60.56 79.3361 60.176 79.9761 59.408C80.6375 58.6613 80.9681 57.616 80.9681 56.272V45.936L84.9681 43.792V56.016ZM88.1794 58L90.1954 54.128H95.2514C96.3394 54.128 96.8834 53.4987 96.8834 52.24C96.8834 49.872 95.7527 48.0587 93.4914 46.8L95.4754 43.408C99.102 45.5413 100.915 48.5067 100.915 52.304C100.915 56.1013 99.2727 58 95.9874 58H88.1794ZM113.221 57.072C112.56 57.2 111.877 57.264 111.173 57.264C109.211 57.264 107.643 56.528 106.469 55.056C105.509 53.8187 105.029 52.3253 105.029 50.576C105.029 48.2293 105.669 46.384 106.949 45.04C108.08 43.8453 109.573 43.248 111.429 43.248C113.328 43.248 114.811 43.856 115.877 45.072C116.795 46.1173 117.253 47.4827 117.253 49.168V56.016C117.253 58.5333 116.592 60.5173 115.269 61.968C114.032 63.3333 112.347 64.016 110.213 64.016C108.869 64.016 107.557 63.6533 106.277 62.928V59.44C107.429 60.1013 108.581 60.432 109.733 60.432C111.803 60.432 112.965 59.312 113.221 57.072ZM113.253 49.104C113.253 47.696 112.645 46.992 111.429 46.992C110.661 46.992 110.053 47.3013 109.605 47.92C109.179 48.5387 108.965 49.3813 108.965 50.448C108.965 52.7093 109.776 53.84 111.397 53.84C112.251 53.84 112.869 53.6267 113.253 53.2V49.104ZM133.916 40.56C133.276 40.56 132.764 40.368 132.38 39.984C131.996 39.6 131.804 39.0773 131.804 38.416C131.804 37.7973 131.996 37.296 132.38 36.912C132.764 36.528 133.276 36.336 133.916 36.336C134.556 36.336 135.057 36.528 135.42 36.912C135.804 37.2747 135.996 37.776 135.996 38.416C135.996 39.8453 135.302 40.56 133.916 40.56ZM138.428 54.128H141.308V58H138.044C137.318 58 136.646 57.904 136.028 57.712C135.75 59.76 134.929 61.3813 133.564 62.576C132.326 63.6427 130.844 64.176 129.116 64.176C127.772 64.176 126.46 63.8347 125.18 63.152V59.632C126.289 60.2507 127.377 60.56 128.444 60.56C129.617 60.56 130.524 60.176 131.164 59.408C131.825 58.6613 132.156 57.616 132.156 56.272V45.904L134.78 44.528L136.156 43.792V43.824L136.188 43.792V51.824C136.188 52.656 136.358 53.2533 136.7 53.616C137.041 53.9573 137.617 54.128 138.428 54.128ZM139.399 58V54.128H142.279C143.09 54.128 143.666 53.9573 144.007 53.616C144.349 53.2533 144.519 52.656 144.519 51.824V45.904L148.551 43.792V52.016C148.551 53.9573 147.954 55.472 146.759 56.56C145.714 57.52 144.349 58 142.663 58H139.399ZM146.183 65.136C145.543 65.136 145.031 64.944 144.647 64.56C144.263 64.176 144.071 63.6533 144.071 62.992C144.071 62.3733 144.263 61.872 144.647 61.488C145.031 61.104 145.543 60.912 146.183 60.912C146.823 60.912 147.325 61.0933 147.687 61.456C148.071 61.84 148.263 62.352 148.263 62.992C148.263 64.4213 147.57 65.136 146.183 65.136ZM160.19 58C158.249 58 156.745 57.3813 155.678 56.144C154.761 55.0773 154.302 53.7013 154.302 52.016V39.472L158.334 37.36V51.824C158.334 52.656 158.505 53.2533 158.846 53.616C159.187 53.9573 159.763 54.128 160.574 54.128H163.454V58H160.19ZM168.756 40.56C168.116 40.56 167.604 40.368 167.22 39.984C166.836 39.6 166.644 39.0773 166.644 38.416C166.644 37.7973 166.836 37.296 167.22 36.912C167.604 36.528 168.116 36.336 168.756 36.336C169.396 36.336 169.898 36.528 170.26 36.912C170.644 37.2747 170.836 37.776 170.836 38.416C170.836 39.8453 170.143 40.56 168.756 40.56ZM161.524 58V54.128H164.404C165.215 54.128 165.791 53.9573 166.132 53.616C166.474 53.2533 166.644 52.656 166.644 51.824V45.904L170.676 43.792V52.016C170.676 53.9573 170.079 55.472 168.884 56.56C167.839 57.52 166.474 58 164.788 58H161.524Z" fill="#FCA311"/>
<defs>
<filter id="filter0_d_33_2561" x="0" y="0" width="250" height="126" filterUnits="userSpaceOnUse" color-interpolation-filters="sRGB">
<feFlood flood-opacity="0" result="BackgroundImageFix"/>
<feColorMatrix in="SourceAlpha" type="matrix" values="0 0 0 0 0 0 0 0 0 0 0 0 0 0 0 0 0 0 127 0" result="hardAlpha"/>
<feMorphology radius="1" operator="erode" in="SourceAlpha" result="effect1_dropShadow_33_2561"/>
<feOffset dy="10"/>
<feGaussianBlur stdDeviation="12"/>
<feComposite in2="hardAlpha" operator="out"/>
<feColorMatrix type="matrix" values="0 0 0 0 0.508333 0 0 0 0 0.452756 0 0 0 0 0.421493 0 0 0 0.19 0"/>
<feBlend mode="normal" in2="BackgroundImageFix" result="effect1_dropShadow_33_2561"/>
<feBlend mode="normal" in="SourceGraphic" in2="effect1_dropShadow_33_2561" result="shape"/>
</filter>
</defs>
</svg>
